<?xml version="1.0" encoding="UTF-8" standalone="no"?>
<!-- Created with Inkscape (http://www.inkscape.org/) -->

<svg
   version="1.1"
   id="svg182"
   width="268"
   height="53.333332"
   viewBox="0 0 268 53.333332"
   sodipodi:docname="logo-builders.svg"
   inkscape:version="1.2 (dc2aedaf03, 2022-05-15)"
   xmlns:inkscape="http://www.inkscape.org/namespaces/inkscape"
   xmlns:sodipodi="http://sodipodi.sourceforge.net/DTD/sodipodi-0.dtd"
   xmlns="http://www.w3.org/2000/svg"
   xmlns:svg="http://www.w3.org/2000/svg">
  <defs
     id="defs186" />
  <sodipodi:namedview
     id="namedview184"
     pagecolor="#ffffff"
     bordercolor="#666666"
     borderopacity="1.0"
     inkscape:showpageshadow="2"
     inkscape:pageopacity="0.0"
     inkscape:pagecheckerboard="0"
     inkscape:deskcolor="#d1d1d1"
     showgrid="false"
     inkscape:zoom="5.0037313"
     inkscape:cx="96.028338"
     inkscape:cy="26.68009"
     inkscape:window-width="1920"
     inkscape:window-height="991"
     inkscape:window-x="-9"
     inkscape:window-y="-9"
     inkscape:window-maximized="1"
     inkscape:current-layer="g190">
    <inkscape:page
       x="0"
       y="0"
       id="page188"
       width="268"
       height="53.333332" />
  </sodipodi:namedview>
  <g
     id="g190"
     inkscape:groupmode="layer"
     inkscape:label="Page 1"
     transform="matrix(1.3333333,0,0,-1.3333333,0,53.333333)">
    <g
       id="g196"
       transform="translate(0,30)">
      <path
         d="M 0,10 H 10 V 0 H 0 Z"
         style="fill:#0d0a00;fill-opacity:1;fill-rule:nonzero;stroke:none"
         id="path198" />
    </g>
    <g
       id="g200"
       transform="scale(1,1.9999999)">
      <path
         d="M 0,10 H 10 V 0 H 0 Z"
         style="fill:#0d0a00;fill-opacity:1;fill-rule:nonzero;stroke:none"
         id="path202" />
    </g>
    <g
       id="g204"
       transform="scale(2,1)">
      <path
         d="M 0,10 H 10 V 0 H 0 Z"
         style="fill:#0d0a00;fill-opacity:1;fill-rule:nonzero;stroke:none"
         id="path206" />
    </g>
    <g
       id="g208"
       transform="translate(10)">
      <path
         d="M 0,10 H 10 V 0 H 0 Z"
         style="fill:#0d0a00;fill-opacity:1;fill-rule:nonzero;stroke:none"
         id="path210" />
    </g>
    <g
       id="g212"
       transform="matrix(2,0,0,1,20,30)">
      <path
         d="M 0,10 H 10 V 0 H 0 Z"
         style="fill:#0d0a00;fill-opacity:1;fill-rule:nonzero;stroke:none"
         id="path214" />
    </g>
    <g
       id="g216"
       transform="translate(30,30)">
      <path
         d="M 0,10 H 10 V 0 H 0 Z"
         style="fill:#0d0a00;fill-opacity:1;fill-rule:nonzero;stroke:none"
         id="path218" />
    </g>
    <g
       id="g220"
       transform="matrix(1,0,0,2,30,20)">
      <path
         d="M 0,10 H 10 V 0 H 0 Z"
         style="fill:#0d0a00;fill-opacity:1;fill-rule:nonzero;stroke:none"
         id="path222" />
    </g>
    <g
       id="g224"
       transform="translate(30)">
      <path
         d="M 0,10 H 10 V 0 H 0 Z"
         style="fill:#0d0a00;fill-opacity:1;fill-rule:nonzero;stroke:none"
         id="path226" />
    </g>
    <g
       id="g228"
       transform="translate(50,8.785286)">
      <path
         d="m 19.368,10.69343 c 1.440001,-0.504 2.568001,-1.296 3.384001,-2.376 0.816,-1.055999 1.224001,-2.339992 1.224001,-3.851993 0,-2.208 -0.888001,-3.912006 -2.664,-5.112007 C 19.536001,-1.846571 16.967999,-2.446566 13.608,-2.446566 H 0 v 25.200001 h 12.888 c 3.216,0 5.664,-0.6 7.344,-1.800001 1.680001,-1.176001 2.520001,-2.772003 2.520001,-4.788002 0,-1.200001 -0.300001,-2.28 -0.9,-3.24 C 21.276001,11.989432 20.448,11.24543 19.368,10.69343 Z M 7.056,17.605434 v -4.860002 h 4.896 c 2.4,0 3.6,0.816 3.6,2.448 0,1.608002 -1.2,2.412002 -3.6,2.412002 z M 13.032,2.701429 c 2.496,0 3.744001,0.852007 3.744001,2.556008 0,1.704 -1.248001,2.555994 -3.744001,2.555994 H 7.056 V 2.701429 Z"
         style="fill:#0d0a00;fill-opacity:1;fill-rule:nonzero;stroke:none"
         id="path230" />
    </g>
    <g
       id="g232"
       transform="translate(50,14.149292)">
      <path
         d="M 47.14397,11.701427 V -7.810572 h -6.516002 v 2.087998 c -0.720001,-0.792 -1.584,-1.391997 -2.591999,-1.799996 -1.008,-0.408001 -2.075997,-0.611999 -3.203999,-0.611999 -2.52,0 -4.535999,0.744001 -6.048,2.232002 -1.488001,1.488001 -2.232,3.719996 -2.232,6.695995 v 10.907999 h 6.839998 V 1.909424 c 0,-1.464001 0.276001,-2.53199 0.828003,-3.203989 0.552002,-0.671999 1.355999,-1.008003 2.411998,-1.008003 1.079998,0 1.956002,0.372005 2.628003,1.116005 0.695999,0.767999 1.043998,1.931991 1.043998,3.491991 v 9.395999 z"
         style="fill:#0d0a00;fill-opacity:1;fill-rule:nonzero;stroke:none"
         id="path234" />
    </g>
    <g
       id="g236"
       transform="translate(50,14.473289)">
      <path
         d="m 50.82975,11.37743 h 6.84 V -8.134569 h -6.84 z"
         style="fill:#0d0a00;fill-opacity:1;fill-rule:nonzero;stroke:none"
         id="path238" />
    </g>
    <g
       id="g240"
       transform="translate(50,6.338722)">
      <path
         d="m 61.394905,27.646568 h 6.840004 V -2e-6 h -6.840004 z"
         style="fill:#0d0a00;fill-opacity:1;fill-rule:nonzero;stroke:none"
         id="path242" />
    </g>
    <g
       id="g244"
       transform="translate(50,6.014725)">
      <path
         d="M 92.696068,27.970566 V 0.323996 h -6.515999 v 1.944 C 84.908066,0.755997 83.000069,-2e-6 80.45607,-2e-6 c -1.776001,0 -3.396004,0.407999 -4.860001,1.223999 -1.463997,0.84 -2.627998,2.028004 -3.491996,3.564003 -0.839997,1.535999 -1.260003,3.311989 -1.260003,5.32799 0,2.015999 0.420006,3.780008 1.260003,5.292009 0.863998,1.535999 2.027999,2.711994 3.491996,3.527994 1.463997,0.816 3.084,1.224001 4.860001,1.224001 2.328003,0 4.127998,-0.671999 5.400001,-2.015999 v 9.826571 z M 81.896072,5.435995 c 1.176003,0 2.148003,0.408007 2.916001,1.224007 0.767997,0.84 1.151993,1.991987 1.151993,3.455988 0,1.44 -0.383996,2.568004 -1.151993,3.384004 -0.744004,0.816 -1.716004,1.223999 -2.916001,1.223999 -1.199997,0 -2.184005,-0.407999 -2.952003,-1.223999 -0.767998,-0.816 -1.152001,-1.944004 -1.152001,-3.384004 0,-1.464001 0.384003,-2.615988 1.152001,-3.455988 0.767998,-0.816 1.752006,-1.224007 2.952003,-1.224007 z"
         style="fill:#0d0a00;fill-opacity:1;fill-rule:nonzero;stroke:none"
         id="path246" />
    </g>
    <g
       id="g248"
       transform="translate(50,13.825302)">
      <path
         d="m 116.32079,2.233414 c 0,-0.048001 -0.036,-0.611996 -0.108,-1.691996 h -14.184 c 0.288,-1.007999 0.83999,-1.787996 1.65599,-2.339996 0.84001,-0.528 1.88401,-0.792 3.13201,-0.792 0.93599,0 1.74,0.131996 2.412,0.395996 0.696,0.264 1.392,0.696005 2.088,1.296005 l 3.6,-3.744003 c -1.89601,-2.112 -4.668,-3.167999 -8.31601,-3.167999 -2.27999,0 -4.284,0.431997 -6.012,1.295997 -1.727994,0.864001 -3.071995,2.064007 -4.031994,3.600006 -0.935997,1.536002 -1.404,3.275988 -1.404,5.219988 0,1.92 0.456002,3.636005 1.368004,5.148005 0.935997,1.536 2.219994,2.736 3.852,3.6 1.632,0.863999 3.46799,1.296 5.50799,1.296 1.944,0 3.70801,-0.408001 5.29201,-1.224001 1.584,-0.792 2.83199,-1.955999 3.744,-3.491999 0.93599,-1.512 1.404,-3.312003 1.404,-5.400003 z m -10.404,5.256006 c -1.056,0 -1.944,-0.300002 -2.66401,-0.900002 -0.69599,-0.6 -1.14,-1.415995 -1.332,-2.447996 h 7.99201 c -0.192,1.032001 -0.648,1.847996 -1.368,2.447996 -0.69601,0.6 -1.572,0.900002 -2.628,0.900002 z"
         style="fill:#0d0a00;fill-opacity:1;fill-rule:nonzero;stroke:none"
         id="path250" />
    </g>
    <g
       id="g252"
       transform="translate(50,14.1493)">
      <path
         d="m 125.27044,9.36142 c 0.696,0.887999 1.596,1.547999 2.7,1.979999 1.12799,0.456 2.41199,0.684 3.85199,0.684 V 5.869417 c -0.62399,0.072 -1.14,0.108002 -1.548,0.108002 -1.46401,0 -2.61599,-0.395996 -3.45599,-1.187996 -0.816,-0.792001 -1.224,-2.004002 -1.224,-3.636002 v -8.964 h -6.84 V 11.70142 h 6.516 z"
         style="fill:#0d0a00;fill-opacity:1;fill-rule:nonzero;stroke:none"
         id="path254" />
    </g>
    <g
       id="g256"
       transform="translate(50,13.825302)">
      <path
         d="m 141.05222,-7.810579 c -1.63201,0 -3.24,0.179992 -4.82399,0.539993 -1.584,0.384001 -2.85601,0.876005 -3.81601,1.476006 l 2.052,4.68 c 0.888,-0.552 1.944,-0.996008 3.168,-1.332009 1.224,-0.312 2.436,-0.467987 3.636,-0.467987 1.104,0 1.884,0.107998 2.33999,0.323998 0.48,0.24 0.72001,0.576004 0.72001,1.008003 0,0.432001 -0.288,0.732002 -0.864,0.900002 -0.552,0.191999 -1.44,0.371994 -2.664,0.539993 -1.56,0.191999 -2.892,0.444004 -3.99601,0.756004 -1.08,0.312001 -2.01599,0.887991 -2.80799,1.727991 -0.79201,0.840001 -1.18799,2.016002 -1.18799,3.528002 0,1.247999 0.37199,2.352001 1.11599,3.312002 0.74401,0.984 1.82399,1.751997 3.23999,2.303997 1.44001,0.576001 3.15601,0.864001 5.14801,0.864001 1.41601,0 2.82,-0.144 4.212,-0.431999 1.39199,-0.288001 2.55599,-0.696002 3.492,-1.224001 l -2.052,-4.644 c -1.728,0.960001 -3.59999,1.440003 -5.616,1.440003 -1.08,0 -1.87199,-0.132004 -2.37599,-0.396004 -0.504,-0.240001 -0.75601,-0.564 -0.75601,-0.972 0,-0.455999 0.276,-0.78 0.828,-0.972 0.552,-0.168 1.464,-0.348002 2.73601,-0.540001 1.608,-0.240001 2.93998,-0.515995 3.99598,-0.827995 1.056,-0.312001 1.96801,-0.888006 2.73601,-1.728007 0.79201,-0.816 1.18801,-1.967989 1.18801,-3.455988 0,-1.224 -0.372,-2.328004 -1.116,-3.312004 -0.74401,-0.960001 -1.84801,-1.716005 -3.31201,-2.268005 -1.44001,-0.552 -3.18001,-0.827995 -5.22,-0.827995 z"
         style="fill:#0d0a00;fill-opacity:1;fill-rule:nonzero;stroke:none"
         id="path258" />
    </g>
    <g
       id="g260"
       transform="translate(50,27.65181)">
      <path
         d="m 50.82975,6.333481 h 6.840004 V -2e-6 H 50.82975 Z"
         style="fill:#0d0a00;fill-opacity:1;fill-rule:nonzero;stroke:none"
         id="path262" />
    </g>
  </g>
</svg>
